# Blender v2.80 (sub 75) OBJ File: ''
# www.blender.org
mtllib flag.mtl
o Mesh_(2)
v 0.960000 -3.260000 -0.561876
v 1.240940 -3.260000 -0.486599
v 1.446600 -3.260000 -0.280939
v 1.521880 -3.260000 -0.000001
v 1.446600 -3.260000 0.280937
v 1.240940 -3.260000 0.486597
v 0.960000 -3.260000 0.561874
v 0.679062 -3.260000 0.486597
v 0.473402 -3.260000 0.280937
v 0.398125 -3.260000 -0.000001
v 0.473402 -3.260000 -0.280939
v 0.679062 -3.260000 -0.486599
v 0.960000 9.869640 -0.637726
v 0.681115 9.715050 -0.552287
v 0.476957 9.601880 -0.318862
v 0.402230 9.560460 0.000002
v 0.476957 9.601880 0.318866
v 0.681115 9.715050 0.552291
v 0.960000 9.869640 0.637730
v 1.238880 10.024200 0.552291
v 1.443040 10.137400 0.318866
v 1.517770 10.178800 0.000002
v 1.443040 10.137400 -0.318862
v 1.238880 10.024200 -0.552287
v 2.203970 10.434700 0.351002
v 9.200930 14.313100 0.351002
v 9.200930 14.313100 -0.350998
v 2.203970 10.434700 -0.350998
v 9.196030 9.165330 0.351002
v 2.199070 5.286860 0.351001
v 2.199070 5.286860 -0.350999
v 9.196030 9.165330 -0.350999
v 7.280000 10.760000 0.351002
v 2.201520 7.860760 0.351001
v 2.201520 7.860760 -0.350999
v 7.280000 10.760000 -0.350998
vt 0.491481 0.685295
vt 0.491481 0.814705
vt 0.426777 0.926777
vt 0.314705 0.991481
vt 0.185295 0.991481
vt 0.073223 0.926777
vt 0.008519 0.814705
vt 0.008519 0.685295
vt 0.073223 0.573223
vt 0.185295 0.508519
vt 0.314705 0.508519
vt 0.426777 0.573223
vt 0.000000 0.500000
vt 0.000000 0.000000
vt 0.083333 0.000000
vt 0.083333 0.500000
vt 0.166667 0.000000
vt 0.166667 0.500000
vt 0.250000 0.000000
vt 0.250000 0.500000
vt 0.333333 0.000000
vt 0.333333 0.500000
vt 0.416667 0.000000
vt 0.416667 0.500000
vt 0.500000 0.000000
vt 0.500000 0.500000
vt 0.583333 0.000000
vt 0.583333 0.500000
vt 0.666667 0.000000
vt 0.666667 0.500000
vt 0.750000 0.000000
vt 0.750000 0.500000
vt 0.833333 0.000000
vt 0.833333 0.500000
vt 0.916667 0.000000
vt 0.916667 0.500000
vt 1.000000 0.000000
vt 1.000000 0.500000
vt 0.991481 0.814705
vt 0.926777 0.926777
vt 0.814705 0.991481
vt 0.685295 0.991481
vt 0.573223 0.926777
vt 0.508519 0.814705
vt 0.508519 0.685295
vt 0.573223 0.573223
vt 0.685295 0.508519
vt 0.814705 0.508519
vt 0.926777 0.573223
vt 0.991481 0.685295
vt 1.000000 0.666667
vt 0.750000 0.666667
vt 0.750000 0.333333
vt 1.000000 0.333333
vt 0.500000 0.666667
vt 0.250000 0.666667
vt 0.250000 0.333333
vt 0.500000 0.333333
vt 0.500000 0.833333
vt 0.250000 0.833333
vt 0.250000 0.166667
vt 0.500000 0.166667
vt 0.250000 0.000000
vt 0.500000 0.000000
vt 0.625000 0.333333
vt 0.625000 0.666667
vt 0.125000 0.333333
vt 0.125000 0.666667
vt 0.000000 0.666667
vt 0.000000 0.333333
vt 0.500000 1.000000
vt 0.250000 1.000000
vn 0.0000 -1.0000 0.0000
vn 0.0027 -0.0053 -1.0000
vn 0.0026 -0.0053 -1.0000
vn -0.5419 -0.0045 -0.8404
vn -0.5419 -0.0045 -0.8405
vn -0.8893 -0.0019 -0.4574
vn -0.8893 -0.0019 -0.4573
vn -1.0000 -0.0001 -0.0000
vn -0.8894 -0.0007 0.4571
vn -0.5423 -0.0034 0.8402
vn 0.0026 -0.0054 1.0000
vn 0.0027 -0.0054 1.0000
vn 0.5453 -0.0045 0.8382
vn 0.8898 -0.0018 0.4563
vn 1.0000 -0.0001 0.0000
vn 0.8897 -0.0007 -0.4566
vn 0.8897 -0.0007 -0.4565
vn 0.5449 -0.0033 -0.8385
vn -0.4848 0.8746 0.0000
vn 0.4848 -0.8746 0.0000
vn 0.0000 -0.0000 1.0000
vn 0.0000 0.0000 -1.0000
vn 0.8797 -0.4756 0.0000
vn 0.6397 0.7686 0.0000
vn -1.0000 0.0010 0.0000
usemtl Default
s 1
f 1/1/1 2/2/1 3/3/1 4/4/1 5/5/1 6/6/1 7/7/1 8/8/1 9/9/1 10/10/1 11/11/1 12/12/1
f 13/13/2 1/14/3 12/15/4 14/16/5
f 14/16/5 12/15/4 11/17/6 15/18/7
f 15/18/7 11/17/6 10/19/8 16/20/8
f 16/20/8 10/19/8 9/21/9 17/22/9
f 17/22/9 9/21/9 8/23/10 18/24/10
f 18/24/10 8/23/10 7/25/11 19/26/12
f 19/26/12 7/25/11 6/27/13 20/28/13
f 20/28/13 6/27/13 5/29/14 21/30/14
f 21/30/14 5/29/14 4/31/15 22/32/15
f 22/32/15 4/31/15 3/33/16 23/34/17
f 23/34/17 3/33/16 2/35/18 24/36/18
f 24/36/18 2/35/18 1/37/3 13/38/2
f 13/39/19 14/40/19 15/41/19 16/42/19 17/43/19 18/44/19 19/45/19 20/46/19 21/47/19 22/48/19 23/49/19 24/50/19
f 25/51/19 26/52/19 27/53/19 28/54/19
f 29/55/20 30/56/20 31/57/20 32/58/20
f 29/55/21 33/59/21 34/60/21 30/56/21
f 32/58/22 31/57/22 35/61/22 36/62/22
f 36/62/22 35/61/22 28/63/22 27/64/22
f 36/65/23 27/53/23 26/52/23 33/66/23
f 36/65/24 33/66/24 29/55/24 32/58/24
f 35/67/25 31/57/25 30/56/25 34/68/25
f 35/67/25 34/68/25 25/69/25 28/70/25
f 33/59/21 26/71/21 25/72/21 34/60/21
