<svg fill="none" height="16" viewBox="0 0 16 16" width="16" xmlns="http://www.w3.org/2000/svg"><g clip-rule="evenodd" fill="#fff" fill-rule="evenodd"><path d="m3.16667 2c-.15321 0-.30492.03018-.44647.08881-.14154.05863-.27016.14456-.37849.2529-.10834.10833-.19427.23695-.2529.37849-.05863.14155-.08881.29326-.08881.44647s.03018.30491.08881.44646.14456.27016.2529.37849c.10833.10834.23695.19428.37849.25291.14155.05863.29326.0888.44647.0888.30942 0 .60616-.12291.82495-.34171.2188-.21879.34171-.51553.34171-.82495s-.12291-.60617-.34171-.82496c-.21879-.21879-.51553-.34171-.82495-.34171zm-2.16667 1.16667c0-.57464.22827-1.12574.6346-1.53207s.95743-.6346 1.53207-.6346c.57463 0 1.12573.22827 1.53206.6346s.6346.95743.6346 1.53207c0 .57463-.22827 1.12573-.6346 1.53206s-.95743.6346-1.53206.6346c-.57464 0-1.12574-.22827-1.53207-.6346s-.6346-.95743-.6346-1.53206zm2.16667 8.50003c-.30942 0-.60617.1229-.82496.3417s-.34171.5155-.34171.8249c0 .3095.12292.6062.34171.825s.51554.3417.82496.3417.60616-.1229.82495-.3417c.2188-.2188.34171-.5155.34171-.825 0-.3094-.12291-.6061-.34171-.8249-.21879-.2188-.51553-.3417-.82495-.3417zm-2.16667 1.1666c0-.5746.22827-1.1257.6346-1.532.40633-.4064.95743-.6346 1.53207-.6346.57463 0 1.12573.2282 1.53206.6346.40633.4063.6346.9574.6346 1.532 0 .5747-.22827 1.1258-.6346 1.5321s-.95743.6346-1.53206.6346c-.57464 0-1.12574-.2283-1.53207-.6346s-.6346-.9574-.6346-1.5321zm11.8333-1.1666c-.3094 0-.6061.1229-.8249.3417s-.3417.5155-.3417.8249c0 .3095.1229.6062.3417.825s.5155.3417.8249.3417c.3095 0 .6062-.1229.825-.3417s.3417-.5155.3417-.825c0-.3094-.1229-.6061-.3417-.8249s-.5155-.3417-.825-.3417zm-2.1666 1.1666c0-.5746.2282-1.1257.6346-1.532.4063-.4064.9574-.6346 1.532-.6346.5747 0 1.1258.2282 1.5321.6346.4063.4063.6346.9574.6346 1.532 0 .5747-.2283 1.1258-.6346 1.5321s-.9574.6346-1.5321.6346c-.5746 0-1.1257-.2283-1.532-.6346-.4064-.4063-.6346-.9574-.6346-1.5321z"/><path d="m3.16667 4.83333c.13261 0 .25979.05268.35356.14645.09376.09377.14644.22095.14644.35355v5.33337c0 .1326-.05268.2598-.14644.3535-.09377.0938-.22095.1465-.35356.1465s-.25978-.0527-.35355-.1465c-.09377-.0937-.14645-.2209-.14645-.3535v-5.33337c0-.1326.05268-.25978.14645-.35355s.22094-.14645.35355-.14645zm5.77-3.68666c.09363.09375.14623.22083.14623.35333s-.0526.25958-.14623.35333l-.81333.81334h2.70996c.6631 0 1.299.26339 1.7678.73223s.7322 1.10473.7322 1.76777v5.83333c0 .1326-.0526.2598-.1464.3536-.0938.0937-.221.1464-.3536.1464s-.2597-.0527-.3535-.1464c-.0938-.0938-.1465-.221-.1465-.3536v-5.83333c0-.39783-.158-.77936-.4393-1.06066-.2813-.28131-.6628-.43934-1.0607-.43934h-2.7093l.81334.81333c.09103.09434.14137.22067.14017.35177s-.05384.25648-.14659.34914-.21818.14518-.34928.14626-.25738-.04938-.35164-.1405l-1.66666-1.66667c-.09364-.09375-.14623-.22083-.14623-.35333s.05259-.25959.14623-.35334l1.66666-1.66666c.09375-.09364.22084-.14623.35334-.14623s.25958.05259.35333.14623z"/></g></svg>